<?xml version="1.0" encoding="UTF-8"?>
<svg width="97px" height="83px" viewBox="0 0 97 83" version="1.1" xmlns="http://www.w3.org/2000/svg" xmlns:xlink="http://www.w3.org/1999/xlink">
    <!-- Generator: Sketch 42 (36781) - http://www.bohemiancoding.com/sketch -->
    <title>shopping-cart-1</title>
    <desc>Created with Sketch.</desc>
    <defs></defs>
    <g id="Icons" stroke="none" stroke-width="1" fill="none" fill-rule="evenodd">
        <g id="Icons---Large" transform="translate(-1533.000000, -1164.000000)" fill="#1DCB9B">
            <g id="shopping-cart-1" transform="translate(1533.502484, 1164.518632)">
                <g id="Outline_Icons">
                    <g id="Group">
                        <path d="M94.0187393,0 L83.7535667,0 C81.7733405,0 80.0691459,1.50992606 79.7931144,3.50547699 L72.2802562,57.1323375 L14.0096002,57.1323375 C12.9094746,57.1323375 12.0093718,56.2182201 12.0093718,55.0918969 C12.0093718,53.9655736 12.9094746,53.0514562 14.0096002,53.0514562 L62.0150837,53.0514562 C65.3234616,53.0514562 68.0157691,50.3050232 68.0157691,46.9301344 C68.0157691,43.5552456 65.3234616,40.8088125 62.0150837,40.8088125 L10.0091433,40.8088125 C8.90901763,40.8088125 8.00891482,39.8946951 8.00891482,38.7683719 C8.00891482,37.6420486 8.90901763,36.7279312 10.0091433,36.7279312 L64.0153121,36.7279312 C67.32369,36.7279312 70.0159976,33.9814982 70.0159976,30.6066094 C70.0159976,27.2317206 67.32369,24.4852875 64.0153121,24.4852875 L6.00868634,24.4852875 C4.90856068,24.4852875 4.00845787,23.5711701 4.00845787,22.4448469 C4.00845787,21.3185236 4.90856068,20.4044062 6.00868634,20.4044062 L70.0159976,20.4044062 C71.1201237,20.4044062 72.016226,19.4902888 72.016226,18.3639656 C72.016226,17.2376424 71.1201237,16.323525 70.0159976,16.323525 L6.00868634,16.323525 C2.70030844,16.323525 0.0080009139,19.0699581 0.0080009139,22.4448469 C0.0080009139,25.8197357 2.70030844,28.5661687 6.00868634,28.5661687 L64.0153121,28.5661687 C65.1154378,28.5661687 66.0155406,29.4802861 66.0155406,30.6066094 C66.0155406,31.7329326 65.1154378,32.64705 64.0153121,32.64705 L10.0091433,32.64705 C6.70076539,32.64705 4.00845787,35.3934831 4.00845787,38.7683719 C4.00845787,42.1432607 6.70076539,44.8896937 10.0091433,44.8896937 L62.0150837,44.8896937 C63.1152093,44.8896937 64.0153121,45.8038111 64.0153121,46.9301344 C64.0153121,48.0564576 63.1152093,48.970575 62.0150837,48.970575 L14.0096002,48.970575 C10.7012223,48.970575 8.00891482,51.7170081 8.00891482,55.0918969 C8.00891482,58.4667857 10.7012223,61.2132187 14.0096002,61.2132187 L72.2802562,61.2132187 C74.2604824,61.2132187 75.9646771,59.7032927 76.2407086,57.7077417 L83.7535667,4.08088125 L94.0187393,4.08088125 C95.1228654,4.08088125 96.0189677,3.16676385 96.0189677,2.04044062 C96.0189677,0.9141174 95.1228654,0 94.0187393,0 L94.0187393,0 Z" id="Shape"></path>
                        <path d="M24.0107426,65.2941 C19.5982386,65.2941 16.0098287,68.9546505 16.0098287,73.4558625 C16.0098287,77.9570745 19.5982386,81.617625 24.0107426,81.617625 C28.4232466,81.617625 32.0116565,77.9570745 32.0116565,73.4558625 C32.0116565,68.9546505 28.4192462,65.2941 24.0107426,65.2941 L24.0107426,65.2941 Z M24.0107426,77.5367437 C21.8024904,77.5367437 20.0102857,75.7044281 20.0102857,73.4558625 C20.0102857,71.2072969 21.8024904,69.3749812 24.0107426,69.3749812 C26.2189949,69.3749812 28.0111996,71.2072969 28.0111996,73.4558625 C28.0111996,75.7044281 26.2189949,77.5367437 24.0107426,77.5367437 L24.0107426,77.5367437 Z" id="Shape"></path>
                        <path d="M68.0157691,65.2941 C63.6032651,65.2941 60.0148552,68.9546505 60.0148552,73.4558625 C60.0148552,77.9570745 63.6032651,81.617625 68.0157691,81.617625 C72.4282731,81.617625 76.016683,77.9570745 76.016683,73.4558625 C76.016683,68.9546505 72.4242726,65.2941 68.0157691,65.2941 L68.0157691,65.2941 Z M68.0157691,77.5367437 C65.8075169,77.5367437 64.0153121,75.7044281 64.0153121,73.4558625 C64.0153121,71.2072969 65.8075169,69.3749812 68.0157691,69.3749812 C70.2240213,69.3749812 72.016226,71.2072969 72.016226,73.4558625 C72.016226,75.7044281 70.2240213,77.5367437 68.0157691,77.5367437 L68.0157691,77.5367437 Z" id="Shape"></path>
                    </g>
                </g>
            </g>
        </g>
    </g>
</svg>