<?xml version="1.0" encoding="UTF-8"?>
<svg width="65px" height="61px" viewBox="0 0 65 61" version="1.1" xmlns="http://www.w3.org/2000/svg" xmlns:xlink="http://www.w3.org/1999/xlink">
    <!-- Generator: Sketch 42 (36781) - http://www.bohemiancoding.com/sketch -->
    <title>align-justify</title>
    <desc>Created with Sketch.</desc>
    <defs></defs>
    <g id="Icons" stroke="none" stroke-width="1" fill="none" fill-rule="evenodd">
        <g id="Icons---Large" transform="translate(-603.000000, -1714.000000)" fill="#1BC490">
            <g id="align-justify" transform="translate(603.666493, 1714.525741)">
                <g id="Outline_Icons">
                    <g id="Group">
                        <path d="M46.9125751,57.4268341 L1.34035929,57.4268341 C0.600480961,57.4268341 0,58.039387 0,58.7941396 C0,59.5488923 0.600480961,60.1614452 1.34035929,60.1614452 L46.9125751,60.1614452 C47.6524534,60.1614452 48.2529344,59.5488923 48.2529344,58.7941396 C48.2529344,58.039387 47.6524534,57.4268341 46.9125751,57.4268341 L46.9125751,57.4268341 Z" id="Shape"></path>
                        <path d="M1.34035929,2.73461115 L62.9968865,2.73461115 C63.7367649,2.73461115 64.3372458,2.12205825 64.3372458,1.36730557 C64.3372458,0.612552897 63.7367649,0 62.9968865,0 L1.34035929,0 C0.600480961,0 0,0.612552897 0,1.36730557 C0,2.12205825 0.600480961,2.73461115 1.34035929,2.73461115 L1.34035929,2.73461115 Z" id="Shape"></path>
                        <path d="M62.9968865,8.20383344 L1.34035929,8.20383344 C0.600480961,8.20383344 0,8.81638634 0,9.57113901 C0,10.3258917 0.600480961,10.9384446 1.34035929,10.9384446 L62.9968865,10.9384446 C63.7367649,10.9384446 64.3372458,10.3258917 64.3372458,9.57113901 C64.3372458,8.81638634 63.7367649,8.20383344 62.9968865,8.20383344 L62.9968865,8.20383344 Z" id="Shape"></path>
                        <path d="M62.9968865,16.4076669 L1.34035929,16.4076669 C0.600480961,16.4076669 0,17.0202198 0,17.7749725 C0,18.5297251 0.600480961,19.142278 1.34035929,19.142278 L62.9968865,19.142278 C63.7367649,19.142278 64.3372458,18.5297251 64.3372458,17.7749725 C64.3372458,17.0202198 63.7367649,16.4076669 62.9968865,16.4076669 L62.9968865,16.4076669 Z" id="Shape"></path>
                        <path d="M62.9968865,24.6115003 L1.34035929,24.6115003 C0.600480961,24.6115003 0,25.2240532 0,25.9788059 C0,26.7335586 0.600480961,27.3461115 1.34035929,27.3461115 L62.9968865,27.3461115 C63.7367649,27.3461115 64.3372458,26.7335586 64.3372458,25.9788059 C64.3372458,25.2240532 63.7367649,24.6115003 62.9968865,24.6115003 L62.9968865,24.6115003 Z" id="Shape"></path>
                        <path d="M62.9968865,32.8153338 L1.34035929,32.8153338 C0.600480961,32.8153338 0,33.4278867 0,34.1826393 C0,34.937392 0.600480961,35.5499449 1.34035929,35.5499449 L62.9968865,35.5499449 C63.7367649,35.5499449 64.3372458,34.937392 64.3372458,34.1826393 C64.3372458,33.4278867 63.7367649,32.8153338 62.9968865,32.8153338 L62.9968865,32.8153338 Z" id="Shape"></path>
                        <path d="M62.9968865,41.0191672 L1.34035929,41.0191672 C0.600480961,41.0191672 0,41.6317201 0,42.3864728 C0,43.1412254 0.600480961,43.7537783 1.34035929,43.7537783 L62.9968865,43.7537783 C63.7367649,43.7537783 64.3372458,43.1412254 64.3372458,42.3864728 C64.3372458,41.6317201 63.7367649,41.0191672 62.9968865,41.0191672 L62.9968865,41.0191672 Z" id="Shape"></path>
                        <path d="M62.9968865,49.2230006 L1.34035929,49.2230006 C0.600480961,49.2230006 0,49.8355535 0,50.5903062 C0,51.3450589 0.600480961,51.9576118 1.34035929,51.9576118 L62.9968865,51.9576118 C63.7367649,51.9576118 64.3372458,51.3450589 64.3372458,50.5903062 C64.3372458,49.8355535 63.7367649,49.2230006 62.9968865,49.2230006 L62.9968865,49.2230006 Z" id="Shape"></path>
                    </g>
                </g>
            </g>
        </g>
    </g>
</svg>