<?xml version="1.0" encoding="UTF-8"?>
<svg width="56px" height="59px" viewBox="0 0 56 59" version="1.1" xmlns="http://www.w3.org/2000/svg" xmlns:xlink="http://www.w3.org/1999/xlink">
    <!-- Generator: Sketch 42 (36781) - http://www.bohemiancoding.com/sketch -->
    <title>crayons</title>
    <desc>Created with Sketch.</desc>
    <defs></defs>
    <g id="Icons" stroke="none" stroke-width="1" fill="none" fill-rule="evenodd">
        <g id="Icons---Large" transform="translate(-788.000000, -973.000000)" fill="#1BC490">
            <g id="crayons" transform="translate(788.719847, 973.414468)">
                <g id="Outline_Icons" transform="translate(0.000000, 0.000000)">
                    <g id="Group">
                        <path d="M15.5481677,12.2005728 L14.1368725,12.2005728 L11.9362088,0.980926054 C11.8237836,0.409939246 11.3334183,0 10.7641161,0 L5.98006451,0 C5.41076237,0 4.92039708,0.409939246 4.80797187,0.980926054 L2.60730813,12.2005728 L1.1960129,12.2005728 C0.535813781,12.2005728 2.27373675e-13,12.7471585 2.27373675e-13,13.4206301 L2.27373675e-13,57.3426922 C2.27373675e-13,58.0161638 0.535813781,58.5627495 1.1960129,58.5627495 L15.5481677,58.5627495 C16.2083669,58.5627495 16.7441806,58.0161638 16.7441806,57.3426922 L16.7441806,13.4206301 C16.7441806,12.7471585 16.2083669,12.2005728 15.5481677,12.2005728 L15.5481677,12.2005728 Z M6.9607951,2.44011456 L9.78338555,2.44011456 L11.6970062,12.2005728 L5.04717445,12.2005728 L6.9607951,2.44011456 L6.9607951,2.44011456 Z M3.58803871,14.6406874 L13.1561419,14.6406874 L14.3521548,14.6406874 L14.3521548,19.5209165 L2.39202581,19.5209165 L2.39202581,14.6406874 L3.58803871,14.6406874 L3.58803871,14.6406874 Z M14.3521548,21.9610311 L14.3521548,48.8022912 L2.39202581,48.8022912 L2.39202581,21.9610311 L14.3521548,21.9610311 L14.3521548,21.9610311 Z M2.39202581,56.1226349 L2.39202581,51.2424058 L14.3521548,51.2424058 L14.3521548,56.1226349 L2.39202581,56.1226349 L2.39202581,56.1226349 Z" id="Shape"></path>
                        <path d="M34.6843742,12.2005728 L33.273079,12.2005728 L31.0724152,0.980926054 C30.95999,0.409939246 30.4696247,0 29.9003226,0 L25.116271,0 C24.5469688,0 24.0566035,0.409939246 23.9441783,0.980926054 L21.7435146,12.2005728 L20.3322194,12.2005728 C19.6720202,12.2005728 19.1362064,12.7471585 19.1362064,13.4206301 L19.1362064,57.3426922 C19.1362064,58.0161638 19.6720202,58.5627495 20.3322194,58.5627495 L34.6843742,58.5627495 C35.3445733,58.5627495 35.8803871,58.0161638 35.8803871,57.3426922 L35.8803871,13.4206301 C35.8803871,12.7471585 35.3445733,12.2005728 34.6843742,12.2005728 L34.6843742,12.2005728 Z M26.0970015,2.44011456 L28.921984,2.44011456 L30.8356047,12.2005728 L24.1857729,12.2005728 L26.0970015,2.44011456 L26.0970015,2.44011456 Z M22.7242452,14.6406874 L32.2923484,14.6406874 L33.4883613,14.6406874 L33.4883613,19.5209165 L21.5282323,19.5209165 L21.5282323,14.6406874 L22.7242452,14.6406874 L22.7242452,14.6406874 Z M33.4883613,21.9610311 L33.4883613,48.8022912 L21.5282323,48.8022912 L21.5282323,21.9610311 L33.4883613,21.9610311 L33.4883613,21.9610311 Z M21.5282323,56.1226349 L21.5282323,51.2424058 L33.4883613,51.2424058 L33.4883613,56.1226349 L21.5282323,56.1226349 L21.5282323,56.1226349 Z" id="Shape"></path>
                        <path d="M53.8205806,12.2005728 L52.4092854,12.2005728 L50.2086217,0.980926054 C50.0961965,0.409939246 49.6058312,0 49.036529,0 L44.2524774,0 C43.6831753,0 43.19281,0.409939246 43.0803848,0.980926054 L40.879721,12.2005728 L39.4684258,12.2005728 C38.8082267,12.2005728 38.2724129,12.7471585 38.2724129,13.4206301 L38.2724129,57.3426922 C38.2724129,58.0161638 38.8082267,58.5627495 39.4684258,58.5627495 L53.8205806,58.5627495 C54.4807798,58.5627495 55.0165935,58.0161638 55.0165935,57.3426922 L55.0165935,13.4206301 C55.0165935,12.7471585 54.4807798,12.2005728 53.8205806,12.2005728 L53.8205806,12.2005728 Z M45.233208,2.44011456 L48.0581905,2.44011456 L49.9718111,12.2005728 L43.3219794,12.2005728 L45.233208,2.44011456 L45.233208,2.44011456 Z M41.8604516,14.6406874 L51.4285548,14.6406874 L52.6245677,14.6406874 L52.6245677,19.5209165 L40.6644387,19.5209165 L40.6644387,14.6406874 L41.8604516,14.6406874 L41.8604516,14.6406874 Z M52.6245677,21.9610311 L52.6245677,48.8022912 L40.6644387,48.8022912 L40.6644387,21.9610311 L52.6245677,21.9610311 L52.6245677,21.9610311 Z M40.6644387,56.1226349 L40.6644387,51.2424058 L52.6245677,51.2424058 L52.6245677,56.1226349 L40.6644387,56.1226349 L40.6644387,56.1226349 Z" id="Shape"></path>
                    </g>
                </g>
            </g>
        </g>
    </g>
</svg>