<?xml version="1.0" encoding="UTF-8"?>
<svg width="96px" height="98px" viewBox="0 0 96 98" version="1.1" xmlns="http://www.w3.org/2000/svg" xmlns:xlink="http://www.w3.org/1999/xlink">
    <!-- Generator: Sketch 42 (36781) - http://www.bohemiancoding.com/sketch -->
    <title>email-at-sign</title>
    <desc>Created with Sketch.</desc>
    <defs></defs>
    <g id="Icons" stroke="none" stroke-width="1" fill="none" fill-rule="evenodd">
        <g id="Icons---Large" transform="translate(-971.000000, -232.000000)" fill="#1DCB9B">
            <g id="email-at-sign" transform="translate(971.488593, 232.303195)">
                <g id="Outline_Icons">
                    <g id="Group">
                        <path d="M95.0527065,46.3336667 C95.0368584,46.1315833 94.9853522,45.9375833 94.910074,45.7435833 C94.8744158,45.650625 94.8506437,45.5576667 94.7991375,45.4727917 C94.7793275,45.4364167 94.7793275,45.396 94.7555554,45.3636667 C94.6327329,45.1737083 94.4702903,45.0362917 94.3038856,44.9029167 C94.2761515,44.8786667 94.2603035,44.83825 94.2286073,44.8180417 L94.1969112,44.7978333 L94.1969112,44.7978333 L79.2403039,34.301625 L79.2403039,2.02083333 C79.2403039,0.905333333 78.3528125,0 77.2592963,0 L17.8290684,0 C16.7355522,0 15.8480608,0.905333333 15.8480608,2.02083333 L15.8480608,34.301625 L0.895415434,44.78975 C0.891453418,44.78975 0.887491403,44.7937917 0.883529388,44.7978333 L0.859757297,44.814 C0.832023191,44.8342083 0.82409916,44.8625 0.800327069,44.8786667 C0.625998401,45.0120417 0.459593762,45.1615833 0.332809276,45.3555833 C0.309037185,45.3919583 0.309037185,45.432375 0.289227109,45.4647083 C0.237720912,45.5495833 0.21394882,45.6425417 0.178290684,45.7355 C0.0990503798,45.9295 0.0515061975,46.1275417 0.0356581367,46.3255833 C0.0316961215,46.3862083 0,46.426625 0,46.4791667 L0,88.9166667 C0,93.374625 3.55392763,97 7.92403039,97 L87.1643343,97 C91.534437,97 95.0883646,93.374625 95.0883646,88.9166667 L95.0883646,46.4791667 C95.0883646,46.426625 95.0566685,46.3862083 95.0527065,46.3336667 L95.0527065,46.3336667 Z M89.5732395,46.4549167 L79.2403039,53.4793333 L79.2403039,39.2082083 L89.5732395,46.4549167 L89.5732395,46.4549167 Z M15.8480608,53.4793333 L5.51512515,46.450875 L15.8480608,39.2082083 L15.8480608,53.4793333 L15.8480608,53.4793333 Z M87.1643343,92.9583333 L7.92403039,92.9583333 C5.74096002,92.9583333 3.96201519,91.143625 3.96201519,88.9166667 L3.96201519,50.258125 L24.6556205,64.3271667 C24.9923918,64.5575417 25.3727453,64.6666667 25.7530988,64.6666667 C26.3949452,64.6666667 27.0209436,64.3514167 27.4052591,63.765375 C28.0114474,62.8357917 27.7658025,61.582875 26.854539,60.9645 L19.810076,56.175125 L19.810076,4.04166667 L75.2782887,4.04166667 L75.2782887,56.175125 L68.2377877,60.9645 C67.3265242,61.582875 67.0808792,62.8357917 67.6870676,63.765375 C68.067421,64.3514167 68.6973814,64.6666667 69.3352659,64.6666667 C69.7116573,64.6666667 70.0920108,64.5575417 70.4327441,64.3271667 L91.1263494,50.258125 L91.1263494,88.9166667 C91.1263494,91.143625 89.3474046,92.9583333 87.1643343,92.9583333 L87.1643343,92.9583333 Z" id="Shape"></path>
                        <path d="M62.6513463,65.1072083 C62.2987269,64.8242917 61.8629052,64.6666667 61.4112355,64.6666667 L33.6771291,64.6666667 C33.2254594,64.6666667 32.7896377,64.8242917 32.4370184,65.1072083 L12.6269424,81.273875 C11.7751092,81.9730833 11.6364386,83.2421667 12.3179052,84.1151667 C13.0033339,84.984125 14.2474066,85.129625 15.1032019,84.4304167 L34.3704818,68.7083333 L60.7139208,68.7083333 L79.9812007,84.4344583 C80.3496681,84.7335417 80.7854898,84.875 81.2213115,84.875 C81.8037277,84.875 82.3782199,84.6163333 82.7704594,84.1151667 C83.451926,83.2421667 83.3132555,81.9730833 82.4614222,81.273875 L62.6513463,65.1072083 L62.6513463,65.1072083 Z" id="Shape"></path>
                        <path d="M47.5441823,52.5416667 C51.5854378,52.5416667 55.4563267,51.325125 58.7408373,49.0254167 C59.6441767,48.3949167 59.8700116,47.1379583 59.2519372,46.2164583 C58.6338628,45.299 57.4056381,45.0645833 56.4983367,45.6950833 C53.8754826,47.53 50.7811487,48.5 47.5441823,48.5 C38.8039768,48.5 31.6961215,41.24925 31.6961215,32.3333333 C31.6961215,23.4174167 38.8039768,16.1666667 47.5441823,16.1666667 C56.2843878,16.1666667 63.3922431,23.4174167 63.3922431,32.3333333 L63.3922431,33.9176667 C63.3922431,35.853625 61.8470572,37.429875 59.9492519,37.429875 C58.0474846,37.429875 56.5022987,35.853625 56.5022987,33.9176667 L56.5022987,32.3333333 C56.5022987,27.2974167 52.4848153,23.195125 47.5441823,23.195125 C42.6035494,23.195125 38.586066,27.2974167 38.586066,32.3333333 C38.586066,37.3732917 42.6035494,41.4715417 47.5441823,41.4715417 C50.1432643,41.4715417 52.4689672,40.3196667 54.1052795,38.509 C55.4602887,40.2994583 57.5641187,41.4715417 59.9492519,41.4715417 C64.0340896,41.4715417 67.3542583,38.084625 67.3542583,33.9176667 L67.3542583,32.3333333 C67.3542583,21.1904583 58.4674582,12.125 47.5441823,12.125 C36.6209064,12.125 27.7341064,21.1904583 27.7341064,32.3333333 C27.7341064,43.4762083 36.6209064,52.5416667 47.5441823,52.5416667 L47.5441823,52.5416667 Z M47.5441823,37.429875 C44.7905818,37.429875 42.5480812,35.1463333 42.5480812,32.3333333 C42.5480812,29.5203333 44.7905818,27.2367917 47.5441823,27.2367917 C50.2977829,27.2367917 52.5402835,29.524375 52.5402835,32.3333333 C52.5402835,35.1422917 50.2977829,37.429875 47.5441823,37.429875 L47.5441823,37.429875 Z" id="Shape"></path>
                    </g>
                </g>
            </g>
        </g>
    </g>
</svg>