<?xml version="1.0" encoding="UTF-8"?>
<svg width="59px" height="42px" viewBox="0 0 59 42" version="1.1" xmlns="http://www.w3.org/2000/svg" xmlns:xlink="http://www.w3.org/1999/xlink">
    <!-- Generator: Sketch 42 (36781) - http://www.bohemiancoding.com/sketch -->
    <title>bank-notes-1</title>
    <desc>Created with Sketch.</desc>
    <defs></defs>
    <g id="Icons" stroke="none" stroke-width="1" fill="none" fill-rule="evenodd">
        <g id="Icons---Large" transform="translate(-788.000000, -1353.000000)" fill="#1BC490">
            <g id="bank-notes-1" transform="translate(788.719847, 1353.292259)">
                <g id="Outline_Icons" transform="translate(0.000000, 0.000000)">
                    <g id="Group">
                        <path d="M47.8405161,30.501432 L47.8405161,1.22005728 C47.8405161,0.546585662 47.3047023,0 46.6445032,0 L1.1960129,0 C0.535813781,0 0,0.546585662 0,1.22005728 L0,30.501432 C0,31.1749036 0.535813781,31.7214893 1.1960129,31.7214893 L46.6445032,31.7214893 C47.3047023,31.7214893 47.8405161,31.1749036 47.8405161,30.501432 L47.8405161,30.501432 Z M45.4484903,29.2813747 L2.39202581,29.2813747 L2.39202581,2.44011456 L45.4484903,2.44011456 L45.4484903,29.2813747 L45.4484903,29.2813747 Z" id="Shape"></path>
                        <path d="M52.6245677,35.3816611 L52.6245677,6.1002864 C52.6245677,5.42681478 52.088754,4.88022912 51.4285548,4.88022912 C50.7683557,4.88022912 50.2325419,5.42681478 50.2325419,6.1002864 L50.2325419,34.1616039 L5.98006451,34.1616039 C5.31986539,34.1616039 4.78405161,34.7081895 4.78405161,35.3816611 C4.78405161,36.0551328 5.31986539,36.6017184 5.98006451,36.6017184 L51.4285548,36.6017184 C52.088754,36.6017184 52.6245677,36.0551328 52.6245677,35.3816611 L52.6245677,35.3816611 Z" id="Shape"></path>
                        <path d="M56.2126064,9.76045825 C55.5524073,9.76045825 55.0165935,10.3070439 55.0165935,10.9805155 L55.0165935,39.041833 L10.7641161,39.041833 C10.103917,39.041833 9.56810322,39.5884186 9.56810322,40.2618903 C9.56810322,40.9353619 10.103917,41.4819475 10.7641161,41.4819475 L56.2126064,41.4819475 C56.8728056,41.4819475 57.4086193,40.9353619 57.4086193,40.2618903 L57.4086193,10.9805155 C57.4086193,10.3070439 56.8728056,9.76045825 56.2126064,9.76045825 L56.2126064,9.76045825 Z" id="Shape"></path>
                        <path d="M23.9202581,24.4011456 C28.5368679,24.4011456 32.2923484,20.5701658 32.2923484,15.8607446 C32.2923484,11.1513235 28.5368679,7.32034368 23.9202581,7.32034368 C19.3036483,7.32034368 15.5481677,11.1513235 15.5481677,15.8607446 C15.5481677,20.5701658 19.3036483,24.4011456 23.9202581,24.4011456 L23.9202581,24.4011456 Z M23.9202581,9.76045825 C27.2188616,9.76045825 29.9003226,12.4982668 29.9003226,15.8607446 C29.9003226,19.2232225 27.2188616,21.9610311 23.9202581,21.9610311 C20.6216545,21.9610311 17.9401935,19.2232225 17.9401935,15.8607446 C17.9401935,12.4982668 20.6216545,9.76045825 23.9202581,9.76045825 L23.9202581,9.76045825 Z" id="Shape"></path>
                        <path d="M5.98006451,26.8412602 L10.7641161,26.8412602 C11.4243152,26.8412602 11.960129,26.2946745 11.960129,25.6212029 C11.960129,24.9477313 11.4243152,24.4011456 10.7641161,24.4011456 L5.98006451,24.4011456 C5.31986539,24.4011456 4.78405161,24.9477313 4.78405161,25.6212029 C4.78405161,26.2946745 5.31986539,26.8412602 5.98006451,26.8412602 L5.98006451,26.8412602 Z" id="Shape"></path>
                        <path d="M37.0764,7.32034368 L41.8604516,7.32034368 C42.5206507,7.32034368 43.0564645,6.77375802 43.0564645,6.1002864 C43.0564645,5.42681478 42.5206507,4.88022912 41.8604516,4.88022912 L37.0764,4.88022912 C36.4162009,4.88022912 35.8803871,5.42681478 35.8803871,6.1002864 C35.8803871,6.77375802 36.4162009,7.32034368 37.0764,7.32034368 L37.0764,7.32034368 Z" id="Shape"></path>
                    </g>
                </g>
            </g>
        </g>
    </g>
</svg>