<?xml version="1.0" encoding="UTF-8" standalone="no"?>
<!DOCTYPE svg PUBLIC "-//W3C//DTD SVG 1.1//EN" "http://www.w3.org/Graphics/SVG/1.1/DTD/svg11.dtd">
<svg width="100%" height="100%" viewBox="0 0 1029 494" version="1.1" xmlns="http://www.w3.org/2000/svg" xmlns:xlink="http://www.w3.org/1999/xlink" xml:space="preserve" style="fill-rule:evenodd;clip-rule:evenodd;stroke-linejoin:round;stroke-miterlimit:1.41421;">
    <g transform="matrix(1,0,0,1,-545.94,-511)">
        <g id="row.26.table" transform="matrix(2.63497,0,0,2.49555,1061.71,897.965)">
            <path d="M-189.191,-26.948L-180.015,-26.948C-177.432,-26.859 -176.096,-25.3 -176.051,-23.162C-176.096,-20.801 -177.432,-19.197 -180.06,-19.153L-189.191,-19.153L-189.191,-26.948ZM-176.096,-14.209C-172.087,-15.501 -170.082,-18.529 -170.082,-23.206C-170.082,-29.487 -173.913,-32.605 -181.53,-32.605L-195.738,-32.605L-195.738,0L-189.191,0L-189.191,-13.496L-183.267,-13.496L-175.427,0L-167.944,0L-176.096,-14.209Z" style="fill:white;fill-rule:nonzero;"/>
            <path d="M-154.626,-16.302C-154.626,-7.127 -147.544,0 -138.324,0C-129.104,0 -122.022,-7.082 -122.022,-16.302C-122.022,-25.522 -129.104,-32.605 -138.324,-32.605C-147.544,-32.605 -154.626,-25.522 -154.626,-16.302ZM-138.28,-6.102C-144.159,-6.102 -148.123,-10.601 -148.123,-16.302C-148.123,-22.004 -144.159,-26.547 -138.324,-26.547C-132.489,-26.547 -128.525,-22.004 -128.525,-16.302C-128.525,-10.645 -132.489,-6.102 -138.28,-6.102Z" style="fill:white;fill-rule:nonzero;"/>
            <path d="M-85.409,-21.781L-79.217,0L-72.714,0L-63.984,-32.605L-70.977,-32.605L-76.278,-12.65L-76.946,-12.65L-82.291,-32.605L-89.017,-32.605L-94.495,-12.65L-95.252,-12.65L-100.553,-32.605L-107.501,-32.605L-98.816,0L-92.268,0L-86.077,-21.781L-85.409,-21.781Z" style="fill:white;fill-rule:nonzero;"/>
            <path d="M-24.075,-7.706C-22.338,-10.022 -22.07,-11.18 -21.09,-14.521L-26.391,-16.213C-26.925,-14.432 -27.46,-13.051 -27.994,-12.115L-32.404,-17.995C-28.93,-20.489 -26.614,-21.736 -26.614,-25.611C-26.614,-30.333 -30.444,-32.872 -35.166,-32.872C-39.843,-32.872 -44.074,-30.645 -44.074,-25.968C-44.074,-23.874 -43.183,-21.558 -41.001,-18.93C-45.856,-16.525 -48.305,-13.273 -48.305,-9.176C-48.305,-3.073 -43.139,0.134 -37.036,0.134C-33.206,0.134 -30.578,-0.802 -27.727,-3.252L-25.055,0L-17.661,0L-24.075,-7.706ZM-35.433,-21.647C-37.749,-24.32 -38.15,-25.166 -38.15,-25.923C-38.15,-27.215 -37.17,-28.106 -35.255,-28.106C-33.25,-28.106 -32.181,-27.081 -32.181,-25.522C-32.181,-24.587 -32.716,-23.741 -35.433,-21.647ZM-31.647,-7.349C-33.696,-5.612 -35.388,-4.9 -37.259,-4.9C-40.065,-4.9 -42.025,-6.637 -42.025,-9.398C-42.025,-11.492 -40.644,-13.63 -37.838,-15.011L-31.647,-7.349Z" style="fill:rgb(253,132,69);fill-rule:nonzero;"/>
            <path d="M-8.173,-32.605L-8.173,-26.547L2.695,-26.547L2.695,0L9.242,0L9.242,-26.547L20.111,-26.547L20.111,-32.605L-8.173,-32.605Z" style="fill:white;fill-rule:nonzero;"/>
            <path d="M41.802,0L43.762,-4.989L58.55,-4.989L60.51,0L67.414,0L54.408,-32.605L47.86,-32.605L34.809,0L41.802,0ZM56.145,-11.536L46.346,-11.536L51.334,-23.919L56.145,-11.536Z" style="fill:white;fill-rule:nonzero;"/>
            <path d="M89.952,-26.992L99.128,-26.992C101.711,-26.903 103.047,-25.166 103.136,-23.607C103.047,-20.935 101.711,-19.999 99.083,-19.955L89.952,-19.955L89.952,-26.992ZM89.952,-14.164L100.464,-14.164C103.493,-14.075 105.23,-11.893 105.319,-9.799C105.23,-6.681 103.448,-5.345 100.375,-5.3L89.952,-5.3L89.952,-14.164ZM109.417,-23.206C109.372,-29.308 105.274,-32.605 99.84,-32.605L83.404,-32.605L83.404,0L101.755,0C108.036,-0.356 111.644,-3.385 111.599,-9.532C111.599,-12.605 109.907,-15.278 107.056,-17.193C108.526,-18.173 109.417,-20.356 109.417,-23.206Z" style="fill:white;fill-rule:nonzero;"/>
            <path d="M129.772,-32.605L129.772,0L153.691,0L153.691,-6.102L136.275,-6.102L136.275,-32.605L129.772,-32.605Z" style="fill:white;fill-rule:nonzero;"/>
            <path d="M194.447,0L194.447,-6.102L177.075,-6.102L177.075,-13.496L190.126,-13.496L190.126,-19.554L177.075,-19.554L177.075,-26.547L194.491,-26.547L194.491,-32.605L170.528,-32.605L170.528,0L194.447,0Z" style="fill:white;fill-rule:nonzero;"/>
        </g>
        <g id="solutions" transform="matrix(1.88677,0,0,1.88754,1061.71,1004.05)">
            <path d="M-100.169,-14.634C-100.169,-16.418 -98.552,-17.812 -96.015,-17.812C-94.008,-17.812 -92.197,-17.171 -90.385,-15.694L-89.102,-17.394C-91.082,-18.983 -93.116,-19.791 -95.96,-19.791C-99.667,-19.791 -102.371,-17.561 -102.371,-14.439C-102.371,-11.206 -100.308,-9.756 -95.82,-8.781C-91.723,-7.917 -90.747,-6.885 -90.747,-5.045C-90.747,-3.066 -92.475,-1.7 -95.096,-1.7C-97.799,-1.7 -99.751,-2.62 -101.786,-4.46L-103.151,-2.843C-100.81,-0.753 -98.273,0.279 -95.179,0.279C-91.305,0.279 -88.517,-1.896 -88.517,-5.268C-88.517,-8.279 -90.524,-9.868 -94.873,-10.816C-99.165,-11.735 -100.169,-12.767 -100.169,-14.634Z" style="fill:rgb(166,166,166);fill-rule:nonzero;"/>
            <path d="M-59.973,-9.784C-59.973,-15.192 -63.959,-19.847 -69.897,-19.847C-75.834,-19.847 -79.876,-15.136 -79.876,-9.728C-79.876,-4.321 -75.89,0.335 -69.952,0.335C-64.015,0.335 -59.973,-4.376 -59.973,-9.784ZM-62.259,-9.728C-62.259,-5.268 -65.437,-1.7 -69.897,-1.7C-74.357,-1.7 -77.59,-5.324 -77.59,-9.784C-77.59,-14.244 -74.412,-17.812 -69.952,-17.812C-65.492,-17.812 -62.259,-14.188 -62.259,-9.728Z" style="fill:rgb(166,166,166);fill-rule:nonzero;"/>
            <path d="M-50.3,0L-37.116,0L-37.116,-2.035L-48.098,-2.035L-48.098,-19.513L-50.3,-19.513L-50.3,0Z" style="fill:rgb(166,166,166);fill-rule:nonzero;"/>
            <path d="M-12.641,-19.513L-14.843,-19.513L-14.843,-8.167C-14.843,-3.903 -17.129,-1.728 -20.725,-1.728C-24.46,-1.728 -26.69,-4.098 -26.69,-8.307L-26.69,-19.513L-28.892,-19.513L-28.892,-8.167C-28.892,-2.648 -25.603,0.307 -20.781,0.307C-15.903,0.307 -12.641,-2.648 -12.641,-8.335L-12.641,-19.513Z" style="fill:rgb(166,166,166);fill-rule:nonzero;"/>
            <path d="M4.976,-17.478L11.526,-17.478L11.526,-19.513L-3.805,-19.513L-3.805,-17.478L2.746,-17.478L2.746,0L4.976,0L4.976,-17.478Z" style="fill:rgb(166,166,166);fill-rule:nonzero;"/>
            <rect x="20.864" y="-19.513" width="2.202" height="19.513" style="fill:rgb(166,166,166);fill-rule:nonzero;"/>
            <path d="M52.837,-9.784C52.837,-15.192 48.851,-19.847 42.914,-19.847C36.976,-19.847 32.934,-15.136 32.934,-9.728C32.934,-4.321 36.92,0.335 42.858,0.335C48.795,0.335 52.837,-4.376 52.837,-9.784ZM50.551,-9.728C50.551,-5.268 47.374,-1.7 42.914,-1.7C38.454,-1.7 35.22,-5.324 35.22,-9.784C35.22,-14.244 38.398,-17.812 42.858,-17.812C47.318,-17.812 50.551,-14.188 50.551,-9.728Z" style="fill:rgb(166,166,166);fill-rule:nonzero;"/>
            <path d="M76.865,-3.875L64.572,-19.513L62.51,-19.513L62.51,0L64.656,0L64.656,-16L77.256,0L79.012,0L79.012,-19.513L76.865,-19.513L76.865,-3.875Z" style="fill:rgb(166,166,166);fill-rule:nonzero;"/>
            <path d="M91.249,-14.634C91.249,-16.418 92.866,-17.812 95.402,-17.812C97.409,-17.812 99.221,-17.171 101.033,-15.694L102.315,-17.394C100.336,-18.983 98.301,-19.791 95.458,-19.791C91.751,-19.791 89.047,-17.561 89.047,-14.439C89.047,-11.206 91.109,-9.756 95.597,-8.781C99.695,-7.917 100.671,-6.885 100.671,-5.045C100.671,-3.066 98.942,-1.7 96.322,-1.7C93.618,-1.7 91.667,-2.62 89.632,-4.46L88.266,-2.843C90.608,-0.753 93.144,0.279 96.238,0.279C100.113,0.279 102.901,-1.896 102.901,-5.268C102.901,-8.279 100.894,-9.868 96.545,-10.816C92.252,-11.735 91.249,-12.767 91.249,-14.634Z" style="fill:rgb(166,166,166);fill-rule:nonzero;"/>
        </g>
        <g id="Group-1" transform="matrix(1,0,0,1,21.2054,0)">
            <path id="Rectangle-1-copy-2" d="M873,569.483L1031.32,569.483L1031.32,639.811L1016.89,654.273L1031.32,668.735L1031.32,728.134L962.513,728.134L962.513,679.882L941.532,679.882L941.532,728.134L873,728.134L873,569.483ZM962.513,600.591L941.532,600.591L941.532,640.271L962.513,640.271L962.513,600.591Z" style="fill:white;"/>
            <path id="Rectangle-1-copy-5" d="M1163.23,572L1208,572L1208,640L1163.23,640L1163.23,730L1094.77,730L1094.77,640L1050,640L1050,572L1094.77,572L1094.77,571.844L1163.23,571.844L1163.23,572Z" style="fill:white;"/>
            <rect id="Rectangle-1-copy-4" x="873" y="511" width="158.321" height="39.645" style="fill:rgb(253,132,69);"/>
            <rect id="Rectangle-1-copy-6" x="1049.68" y="511" width="158.321" height="39.645" style="fill:rgb(253,132,69);"/>
        </g>
    </g>
</svg>
