<?xml version="1.0" encoding="UTF-8"?>
<svg width="66px" height="57px" viewBox="0 0 66 57" version="1.1" xmlns="http://www.w3.org/2000/svg" xmlns:xlink="http://www.w3.org/1999/xlink">
    <!-- Generator: Sketch 42 (36781) - http://www.bohemiancoding.com/sketch -->
    <title>megaphone-1</title>
    <desc>Created with Sketch.</desc>
    <defs></defs>
    <g id="Icons" stroke="none" stroke-width="1" fill="none" fill-rule="evenodd">
        <g id="Icons---Large" transform="translate(-971.000000, -793.000000)" fill="#1BC490">
            <g id="megaphone-1" transform="translate(971.488593, 793.962996)">
                <g id="Outline_Icons">
                    <path d="M59.5833333,16.5766864 L59.5833333,1.38139053 C59.5833333,0.911717751 59.3504167,0.475198343 58.963125,0.221022485 C58.5758333,-0.0303905917 58.09375,-0.0690695266 57.6685417,0.124325148 L55.1552083,1.2985071 C44.4654167,6.31295473 34.3660417,11.0511243 12.1875,11.0511243 L9.47916667,11.0511243 C4.25208333,11.0511243 0,15.3886905 0,20.720858 L0,26.2464201 C0,31.5785876 4.25208333,35.9161538 9.47916667,35.9161538 L12.1875,35.9161538 C14.5925,35.9161538 16.8295833,35.9796978 18.96375,36.0874463 C19.0016667,44.1962087 23.424375,51.4788996 30.5391667,55.1119567 C30.7341667,55.208654 30.9427083,55.2556213 31.1458333,55.2556213 C31.6414583,55.2556213 32.118125,54.9765804 32.3564583,54.4930937 C32.6895833,53.8106868 32.41875,52.9818525 31.7497917,52.6392676 C25.6072917,49.5035111 21.7777083,43.2430492 21.6829167,36.2559759 C37.496875,37.4108184 46.13375,41.4361904 55.1660417,45.6742966 L57.6658333,46.842953 C57.8472917,46.9258364 58.0395833,46.9672781 58.2291667,46.9672781 C58.4864583,46.9672781 58.7383333,46.8954458 58.963125,46.7462556 C59.3504167,46.4920798 59.5833333,46.0555604 59.5833333,45.5858876 L59.5833333,30.3905917 C62.570625,30.3905917 65,27.9123771 65,24.8650296 L65,22.1022485 C65,19.0521382 62.570625,16.5766864 59.5833333,16.5766864 L59.5833333,16.5766864 Z M9.47916667,33.1533728 C5.744375,33.1533728 2.70833333,30.0535324 2.70833333,26.2464201 L2.70833333,20.720858 C2.70833333,16.9137457 5.744375,13.8139053 9.47916667,13.8139053 L12.1875,13.8139053 C14.5870833,13.8139053 16.81875,13.7503614 18.9583333,13.6453757 L18.9583333,33.3191396 C16.81875,33.2169167 14.5870833,33.1533728 12.1875,33.1533728 L9.47916667,33.1533728 L9.47916667,33.1533728 Z M56.875,43.4336811 L56.3008333,43.1656914 C46.9841667,38.7949717 38.0764583,34.639749 21.6666667,33.4821437 L21.6666667,13.4851344 C38.07375,12.3275291 46.9760417,8.17783195 56.2872917,3.80711231 L56.875,3.53359698 L56.875,17.9580769 L56.875,29.0092012 L56.875,43.4336811 L56.875,43.4336811 Z M62.2916667,24.8650296 C62.2916667,26.387322 61.0783333,27.6278107 59.5833333,27.6278107 L59.5833333,19.3394675 C61.0783333,19.3394675 62.2916667,20.5799562 62.2916667,22.1022485 L62.2916667,24.8650296 L62.2916667,24.8650296 Z" id="Shape"></path>
                </g>
            </g>
        </g>
    </g>
</svg>