<?xml version="1.0" encoding="UTF-8"?>
<svg width="56px" height="57px" viewBox="0 0 56 57" version="1.1" xmlns="http://www.w3.org/2000/svg" xmlns:xlink="http://www.w3.org/1999/xlink">
    <!-- Generator: Sketch 42 (36781) - http://www.bohemiancoding.com/sketch -->
    <title>rocket</title>
    <desc>Created with Sketch.</desc>
    <defs></defs>
    <g id="Icons" stroke="none" stroke-width="1" fill="none" fill-rule="evenodd">
        <g id="Icons---Large" transform="translate(-971.000000, -1530.000000)" fill="#1BC490">
            <g id="rocket" transform="translate(971.488593, 1528.082653)">
                <g id="Outline_Icons">
                    <g id="Group">
                        <path d="M54.8108793,3.86026124 C54.873072,3.47228302 54.7510787,3.07698446 54.4759957,2.79637129 C54.2009127,2.51819823 53.8110125,2.37667158 53.4330725,2.45475525 C52.3542688,2.63776384 42.824438,4.32632312 40.0975286,7.10805372 C39.2411833,7.98161473 32.0985943,15.2873177 25.2574005,22.2806861 C21.6047771,22.3026471 16.5576026,22.3538895 14.27561,23.132286 C12.3715575,23.7837966 9.96039546,25.77249 8.80504699,26.9510653 L0.349235768,35.5768703 C-0.011960129,35.9428875 -0.10285711,36.506554 0.11960129,36.9726158 C0.320531458,37.3971958 0.741528,37.658288 1.19362088,37.658288 C1.24146139,37.658288 1.29169394,37.6558479 1.33953445,37.6485276 L11.9003284,36.3308657 C11.8572719,36.6895625 11.952953,37.06046 12.2232519,37.3361929 L20.6455747,45.9278363 C20.8799933,46.1669675 21.1861726,46.284093 21.4923519,46.284093 C21.506704,46.284093 21.5186642,46.2767727 21.5330163,46.2767727 L20.303515,57.0035163 C20.2437144,57.5183804 20.5116213,58.0161638 20.9708902,58.2430945 C21.13594,58.3236182 21.315342,58.3651002 21.4923519,58.3651002 C21.8033152,58.3651002 22.1094945,58.2406544 22.339129,58.0088435 L30.7949402,49.3830385 C31.9311525,48.221544 33.8232449,45.7009056 34.4690919,43.7292931 C35.0527462,41.9431292 35.3565334,38.1999935 35.3732776,32.6365323 L50.2492861,17.4614598 C52.9785876,14.6797292 54.6314774,4.95831279 54.8108793,3.86026124 L54.8108793,3.86026124 Z M10.4986013,28.6786664 C11.6898301,27.4634894 13.7637165,25.8822952 15.0362742,25.4503949 C16.2538154,25.0355754 18.8587315,24.772043 22.8725508,24.7256809 C20.1312892,27.5269324 17.5789976,30.1402951 15.6558089,32.1045873 C15.6390647,32.1216681 15.6151445,32.1265483 15.6007923,32.1436291 C15.5864402,32.1607099 15.5792641,32.1851111 15.5625199,32.2021919 C15.0578024,32.717056 14.6081016,33.1757976 14.2038492,33.5906171 L4.49700852,34.8009139 L10.4986013,28.6786664 L10.4986013,28.6786664 Z M14.7611912,36.4772726 C15.1797958,36.0478124 15.7801942,35.4329035 16.4571375,34.7423511 L23.1859061,41.6137137 L21.4923519,43.3413148 L14.7611912,36.4772726 L14.7611912,36.4772726 Z M32.1990594,42.9557767 C31.7517505,44.3222409 30.2088939,46.5281045 29.103778,47.6578775 L23.080657,53.802086 L24.2001251,44.0318673 L25.7166694,42.4872747 C25.7190615,42.4848346 25.7238455,42.4823945 25.7262375,42.4799544 C25.7286296,42.4775143 25.7286296,42.4726341 25.7334136,42.4701939 L32.9525475,35.1059282 C32.8353382,40.1764863 32.445438,42.1969011 32.1990594,42.9557767 L32.1990594,42.9557767 Z M24.8770684,39.8909929 L18.1459078,33.01475 C25.6162044,25.3747513 40.5257012,10.1240353 41.7910829,8.83565483 C43.2143382,7.38378666 48.3356655,5.95631964 52.1413785,5.18036321 C51.3807143,9.06014537 49.9813792,14.2819905 48.5557318,15.7362988 L24.8770684,39.8909929 L24.8770684,39.8909929 Z" id="Shape"></path>
                        <path d="M15.572088,44.2051154 C15.105643,44.6809377 15.105643,45.4544541 15.572088,45.9302764 C16.0887656,46.4597813 16.2753436,47.07225 16.1413901,47.8116047 C15.9978686,48.5973216 15.4955432,49.4635623 14.7277029,50.2468391 C13.4168727,51.5840218 7.90325326,53.4433891 3.70764,54.6146441 C4.84624428,50.3224826 6.65222377,44.6833778 7.96305391,43.343755 C8.38644248,42.9118547 10.5847142,40.8401974 12.1945476,42.4799544 C12.6609926,42.9557767 13.4192648,42.9557767 13.8857098,42.4799544 C14.3521548,42.0041321 14.3521548,41.2306157 13.8857098,40.7547934 C11.862056,38.6880164 8.80265497,39.0369528 6.27189166,41.618594 C3.77461672,44.1709538 1.16970062,54.824494 0.880265497,56.0323507 C0.779800413,56.4471702 0.901793729,56.8839507 1.19840493,57.1865249 C1.42564738,57.4158956 1.72943466,57.5427816 2.04279004,57.5427816 C2.13847107,57.5427816 2.23654413,57.530581 2.32983314,57.5061799 C3.50910186,57.2084859 13.9215902,54.5194796 16.4212572,51.972 C17.5431173,50.8251462 18.260725,49.5416459 18.4951435,48.2581457 C18.7750106,46.7379543 18.3372698,45.2982867 17.2656423,44.2075555 C16.7968052,43.7292931 16.0409251,43.7292931 15.572088,44.2051154 L15.572088,44.2051154 Z" id="Shape"></path>
                    </g>
                </g>
            </g>
        </g>
    </g>
</svg>