<?xml version="1.0" encoding="UTF-8"?>
<svg width="97px" height="87px" viewBox="0 0 97 87" version="1.1" xmlns="http://www.w3.org/2000/svg" xmlns:xlink="http://www.w3.org/1999/xlink">
    <!-- Generator: Sketch 42 (36781) - http://www.bohemiancoding.com/sketch -->
    <title>computer-imac-2</title>
    <desc>Created with Sketch.</desc>
    <defs></defs>
    <g id="Icons" stroke="none" stroke-width="1" fill="none" fill-rule="evenodd">
        <g id="Icons---Large" transform="translate(-416.000000, -423.000000)" fill="#1DCB9B">
            <g id="computer-imac-2" transform="translate(416.328529, 423.407360)">
                <g id="Outline_Icons">
                    <g id="Group">
                        <path d="M88.0100529,0 L8.0009139,0 C3.58840989,0 0,3.82378573 0,8.52088005 L0,69.0158637 C0,73.712958 3.58840989,77.5367437 8.0009139,77.5367437 L46.0052549,77.5367437 L46.0052549,81.617625 L20.0022848,81.617625 C18.8981586,81.617625 18.0020563,82.5317424 18.0020563,83.6580656 C18.0020563,84.7843888 18.8981586,85.6985062 20.0022848,85.6985062 L76.0086821,85.6985062 C77.1128082,85.6985062 78.0089106,84.7843888 78.0089106,83.6580656 C78.0089106,82.5317424 77.1128082,81.617625 76.0086821,81.617625 L50.0057119,81.617625 L50.0057119,77.5367437 L88.0100529,77.5367437 C92.4225569,77.5367437 96.0109668,73.712958 96.0109668,69.0158637 L96.0109668,8.52088005 C96.0109668,3.82378573 92.4225569,0 88.0100529,0 L88.0100529,0 Z M8.0009139,4.08088125 L88.0100529,4.08088125 C90.2143047,4.08088125 92.0105099,6.0723513 92.0105099,8.52088005 L92.0105099,57.1323375 L4.00045695,57.1323375 L4.00045695,8.52088005 C4.00045695,6.0723513 5.79666212,4.08088125 8.0009139,4.08088125 L8.0009139,4.08088125 Z M88.0100529,73.4558625 L8.0009139,73.4558625 C5.79666212,73.4558625 4.00045695,71.4643924 4.00045695,69.0158637 L4.00045695,61.2132187 L92.0105099,61.2132187 L92.0105099,69.0158637 C92.0105099,71.4643924 90.2143047,73.4558625 88.0100529,73.4558625 L88.0100529,73.4558625 Z" id="Shape"></path>
                        <ellipse id="Oval" cx="48.0054834" cy="67.3345406" rx="4.00045695" ry="4.08088125"></ellipse>
                    </g>
                </g>
            </g>
        </g>
    </g>
</svg>