<?xml version="1.0" encoding="UTF-8"?>
<svg width="72px" height="98px" viewBox="0 0 72 98" version="1.1" xmlns="http://www.w3.org/2000/svg" xmlns:xlink="http://www.w3.org/1999/xlink">
    <!-- Generator: Sketch 42 (36781) - http://www.bohemiancoding.com/sketch -->
    <title>tablet-ipad-2</title>
    <desc>Created with Sketch.</desc>
    <defs></defs>
    <g id="Icons" stroke="none" stroke-width="1" fill="none" fill-rule="evenodd">
        <g id="Icons---Large" transform="translate(-978.000000, -418.000000)" fill="#1DCB9B">
            <g id="tablet-ipad-2" transform="translate(978.342421, 418.746282)">
                <g id="Outline_Icons">
                    <g id="Group">
                        <path d="M60.9561152,0 L9.83163149,0 C4.41243621,0 0,4.49713114 0,10.0292844 L0,86.2518461 C0,91.7839994 4.41243621,96.2811305 9.83163149,96.2811305 L60.9561152,96.2811305 C66.3753105,96.2811305 70.7877467,91.7839994 70.7877467,86.2518461 L70.7877467,10.0292844 C70.7877467,4.49713114 66.3753105,0 60.9561152,0 L60.9561152,0 Z M66.8550941,86.2518461 C66.8550941,89.5695334 64.2084189,92.2694167 60.9561152,92.2694167 L9.83163149,92.2694167 C6.57932779,92.2694167 3.9326526,89.5695334 3.9326526,86.2518461 L3.9326526,10.0292844 C3.9326526,6.71159714 6.57932779,4.01171377 9.83163149,4.01171377 L60.9561152,4.01171377 C64.2084189,4.01171377 66.8550941,6.71159714 66.8550941,10.0292844 L66.8550941,86.2518461 L66.8550941,86.2518461 Z" id="Shape"></path>
                        <path d="M60.9561152,12.0351413 L9.83163149,12.0351413 C8.74621937,12.0351413 7.86530519,12.9337652 7.86530519,14.0409982 L7.86530519,78.2284185 C7.86530519,79.3356515 8.74621937,80.2342754 9.83163149,80.2342754 L60.9561152,80.2342754 C62.0415274,80.2342754 62.9224415,79.3356515 62.9224415,78.2284185 L62.9224415,14.0409982 C62.9224415,12.9337652 62.0415274,12.0351413 60.9561152,12.0351413 L60.9561152,12.0351413 Z M58.9897889,76.2225616 L11.7979578,76.2225616 L11.7979578,16.0468551 L58.9897889,16.0468551 L58.9897889,76.2225616 L58.9897889,76.2225616 Z" id="Shape"></path>
                        <ellipse id="Oval" cx="35.3938734" cy="8.02342754" rx="1.9663263" ry="2.00585689"></ellipse>
                        <ellipse id="Oval" cx="35.3938734" cy="86.2518461" rx="3.9326526" ry="4.01171377"></ellipse>
                    </g>
                </g>
            </g>
        </g>
    </g>
</svg>