<?xml version="1.0" encoding="UTF-8"?>
<svg width="95px" height="96px" viewBox="0 0 95 96" version="1.1" xmlns="http://www.w3.org/2000/svg" xmlns:xlink="http://www.w3.org/1999/xlink">
    <!-- Generator: Sketch 42 (36781) - http://www.bohemiancoding.com/sketch -->
    <title>window-application-8</title>
    <desc>Created with Sketch.</desc>
    <defs></defs>
    <g id="Icons" stroke="none" stroke-width="1" fill="none" fill-rule="evenodd">
        <g id="Icons---Large" transform="translate(-1912.000000, -1341.000000)" fill="#1DCB9B">
            <g id="window-application-8" transform="translate(1912.747631, 1341.639566)">
                <g id="Outline_Icons">
                    <g id="Group">
                        <path d="M83.6803604,0 L9.73027447,0 C4.36305507,0 0,4.45076896 0,9.92588974 L0,85.3626518 C0,90.8377726 4.36305507,95.2885415 9.73027447,95.2885415 L83.6803604,95.2885415 C89.0475798,95.2885415 93.4106349,90.8377726 93.4106349,85.3626518 L93.4106349,9.92588974 C93.4106349,4.45076896 89.0475798,0 83.6803604,0 L83.6803604,0 Z M9.73027447,3.9703559 L83.6803604,3.9703559 C86.8991352,3.9703559 89.5185251,6.64240542 89.5185251,9.92588974 L89.5185251,19.8517795 L3.89210979,19.8517795 L3.89210979,9.92588974 C3.89210979,6.64240542 6.51149967,3.9703559 9.73027447,3.9703559 L9.73027447,3.9703559 Z M3.89210979,85.3626518 L3.89210979,23.8221354 L31.1368783,23.8221354 L31.1368783,91.3181856 L9.73027447,91.3181856 C6.51149967,91.3181856 3.89210979,88.6461361 3.89210979,85.3626518 L3.89210979,85.3626518 Z M83.6803604,91.3181856 L35.0289881,91.3181856 L35.0289881,23.8221354 L89.5185251,23.8221354 L89.5185251,85.3626518 C89.5185251,88.6461361 86.8991352,91.3181856 83.6803604,91.3181856 L83.6803604,91.3181856 Z" id="Shape"></path>
                        <ellipse id="Oval" cx="15.5684391" cy="11.9110677" rx="3.89210979" ry="3.9703559"></ellipse>
                        <ellipse id="Oval" cx="27.2447685" cy="11.9110677" rx="3.89210979" ry="3.9703559"></ellipse>
                        <ellipse id="Oval" cx="38.9210979" cy="11.9110677" rx="3.89210979" ry="3.9703559"></ellipse>
                        <path d="M79.7882506,27.7924913 L44.7592625,27.7924913 C43.6850402,27.7924913 42.8132076,28.681851 42.8132076,29.7776692 L42.8132076,49.6294487 C42.8132076,50.7252669 43.6850402,51.6146267 44.7592625,51.6146267 L79.7882506,51.6146267 C80.8624729,51.6146267 81.7343055,50.7252669 81.7343055,49.6294487 L81.7343055,29.7776692 C81.7343055,28.681851 80.8624729,27.7924913 79.7882506,27.7924913 L79.7882506,27.7924913 Z M77.8421957,47.6442708 L46.7053174,47.6442708 L46.7053174,31.7628472 L77.8421957,31.7628472 L77.8421957,47.6442708 L77.8421957,47.6442708 Z" id="Shape"></path>
                        <path d="M79.7882506,59.5553384 L44.7592625,59.5553384 C43.6850402,59.5553384 42.8132076,60.4446982 42.8132076,61.5405164 L42.8132076,81.3922959 C42.8132076,82.4881141 43.6850402,83.3774738 44.7592625,83.3774738 L79.7882506,83.3774738 C80.8624729,83.3774738 81.7343055,82.4881141 81.7343055,81.3922959 L81.7343055,61.5405164 C81.7343055,60.4446982 80.8624729,59.5553384 79.7882506,59.5553384 L79.7882506,59.5553384 Z M77.8421957,79.4071179 L46.7053174,79.4071179 L46.7053174,63.5256943 L77.8421957,63.5256943 L77.8421957,79.4071179 L77.8421957,79.4071179 Z" id="Shape"></path>
                        <path d="M9.81200877,31.7628472 L17.514494,31.7628472 C18.5887163,31.7628472 19.4605489,30.8734875 19.4605489,29.7776692 C19.4605489,28.681851 18.5887163,27.7924913 17.514494,27.7924913 L9.81200877,27.7924913 C8.73778647,27.7924913 7.86595388,28.681851 7.86595388,29.7776692 C7.86595388,30.8734875 8.73389436,31.7628472 9.81200877,31.7628472 L9.81200877,31.7628472 Z" id="Shape"></path>
                        <path d="M15.6501734,37.718381 C15.6501734,38.8141992 16.522006,39.703559 17.5962283,39.703559 L25.2987136,39.703559 C26.3729359,39.703559 27.2447685,38.8141992 27.2447685,37.718381 C27.2447685,36.6225628 26.3729359,35.7332031 25.2987136,35.7332031 L17.5962283,35.7332031 C16.5181139,35.7332031 15.6501734,36.6225628 15.6501734,37.718381 L15.6501734,37.718381 Z" id="Shape"></path>
                        <path d="M25.2987136,43.6739149 L17.5962283,43.6739149 C16.522006,43.6739149 15.6501734,44.5632746 15.6501734,45.6590928 C15.6501734,46.754911 16.522006,47.6442708 17.5962283,47.6442708 L25.2987136,47.6442708 C26.3729359,47.6442708 27.2447685,46.754911 27.2447685,45.6590928 C27.2447685,44.5632746 26.3729359,43.6739149 25.2987136,43.6739149 L25.2987136,43.6739149 Z" id="Shape"></path>
                        <path d="M25.2987136,51.6146267 L17.5962283,51.6146267 C16.522006,51.6146267 15.6501734,52.5039864 15.6501734,53.5998046 C15.6501734,54.6956228 16.522006,55.5849826 17.5962283,55.5849826 L25.2987136,55.5849826 C26.3729359,55.5849826 27.2447685,54.6956228 27.2447685,53.5998046 C27.2447685,52.5039864 26.3729359,51.6146267 25.2987136,51.6146267 L25.2987136,51.6146267 Z" id="Shape"></path>
                        <path d="M19.4605489,61.5405164 C19.4605489,60.4446982 18.5887163,59.5553384 17.514494,59.5553384 L9.81200877,59.5553384 C8.73778647,59.5553384 7.86595388,60.4446982 7.86595388,61.5405164 C7.86595388,62.6363346 8.73778647,63.5256943 9.81200877,63.5256943 L17.514494,63.5256943 C18.5887163,63.5256943 19.4605489,62.6363346 19.4605489,61.5405164 L19.4605489,61.5405164 Z" id="Shape"></path>
                        <path d="M25.2987136,67.4960502 L17.5962283,67.4960502 C16.522006,67.4960502 15.6501734,68.38541 15.6501734,69.4812282 C15.6501734,70.5770464 16.522006,71.4664061 17.5962283,71.4664061 L25.2987136,71.4664061 C26.3729359,71.4664061 27.2447685,70.5770464 27.2447685,69.4812282 C27.2447685,68.38541 26.3729359,67.4960502 25.2987136,67.4960502 L25.2987136,67.4960502 Z" id="Shape"></path>
                        <path d="M25.2987136,75.436762 L17.5962283,75.436762 C16.522006,75.436762 15.6501734,76.3261218 15.6501734,77.42194 C15.6501734,78.5177582 16.522006,79.4071179 17.5962283,79.4071179 L25.2987136,79.4071179 C26.3729359,79.4071179 27.2447685,78.5177582 27.2447685,77.42194 C27.2447685,76.3261218 26.3729359,75.436762 25.2987136,75.436762 L25.2987136,75.436762 Z" id="Shape"></path>
                    </g>
                </g>
            </g>
        </g>
    </g>
</svg>